# xmcd
#
# Track frame offsets: 
#        150
#        18535
#        37405
#        51640
#        70912
#        91492
#        112422
#        130092
#        151697
#        176630
#        197837
#
# Disc length: 2905 seconds
#
# Revision: 5
# Processed by: cddbd v1.5.2PL0 Copyright (c) Steve Scherf et al.
# Submitted via: ExactAudioCopyFreeDBPlugin 1.0
#
DISCID=a50b570b
DTITLE=Laurie Lewis - Seeing Things
DYEAR=1998
DGENRE=Country
TTITLE0=Blue Days, Sleepless Nights
TTITLE1=The Refugee
TTITLE2=Visualize
TTITLE3=Kiss Me Before I Die
TTITLE4=Let The Bird Go Free
TTITLE5=Bane and Balm
TTITLE6=I'll Take Back My Heart
TTITLE7=Tattoo
TTITLE8=Angel on His Shoulder
TTITLE9=Manzanar
TTITLE10=The Blackest Crow
EXTD=
EXTT0=
EXTT1=
EXTT2=
EXTT3=
EXTT4=
EXTT5=
EXTT6=
EXTT7=
EXTT8=
EXTT9=
EXTT10=
PLAYORDER=
